<svg width="17" height="17" viewBox="0 0 17 17" fill="none" xmlns="http://www.w3.org/2000/svg">
<path d="M16.2992 8.5C16.6862 8.5 17.003 8.18568 16.9711 7.79994C16.8526 6.3656 16.3713 4.98068 15.5675 3.77765C14.6335 2.37984 13.306 1.29037 11.7528 0.647024C10.1996 0.00367909 8.49057 -0.164649 6.84173 0.163325C5.19289 0.4913 3.67834 1.30085 2.48959 2.48959C1.30085 3.67834 0.491299 5.19289 0.163325 6.84173C-0.164649 8.49057 0.00367911 10.1996 0.647024 11.7528C1.29037 13.306 2.37984 14.6335 3.77765 15.5675C4.98068 16.3713 6.3656 16.8526 7.79994 16.9711C8.18568 17.003 8.5 16.6862 8.5 16.2992C8.5 15.9121 8.18546 15.6019 7.80029 15.5638C6.64355 15.4492 5.5288 15.0518 4.55637 14.4021C3.38905 13.6221 2.47923 12.5135 1.94198 11.2164C1.40472 9.91937 1.26415 8.49213 1.53804 7.11518C1.81193 5.73823 2.48798 4.47343 3.48071 3.48071C4.47343 2.48798 5.73823 1.81193 7.11518 1.53804C8.49213 1.26415 9.91937 1.40472 11.2164 1.94198C12.5135 2.47923 13.6221 3.38905 14.4021 4.55637C15.0518 5.5288 15.4492 6.64355 15.5638 7.80029C15.6019 8.18546 15.9121 8.5 16.2992 8.5Z" fill="#00FF0A"/>
</svg>
