<svg width="17" height="18" viewBox="0 0 17 18" fill="none" xmlns="http://www.w3.org/2000/svg">
<path d="M16.2992 9C16.6862 9 17.003 8.68568 16.9711 8.29994C16.8526 6.8656 16.3713 5.48068 15.5675 4.27765C14.6335 2.87984 13.306 1.79037 11.7528 1.14702C10.1996 0.503679 8.49057 0.335351 6.84173 0.663325C5.19289 0.9913 3.67834 1.80085 2.48959 2.98959C1.30085 4.17834 0.491299 5.69289 0.163325 7.34173C-0.164649 8.99057 0.00367911 10.6996 0.647024 12.2528C1.29037 13.806 2.37984 15.1335 3.77765 16.0675C4.98068 16.8713 6.3656 17.3526 7.79994 17.4711C8.18568 17.503 8.5 17.1862 8.5 16.7992C8.5 16.4121 8.18546 16.1019 7.80029 16.0638C6.64355 15.9492 5.5288 15.5518 4.55637 14.9021C3.38905 14.1221 2.47923 13.0135 1.94198 11.7164C1.40472 10.4194 1.26415 8.99213 1.53804 7.61518C1.81193 6.23823 2.48798 4.97343 3.48071 3.98071C4.47343 2.98798 5.73823 2.31193 7.11518 2.03804C8.49213 1.76415 9.91937 1.90472 11.2164 2.44198C12.5135 2.97923 13.6221 3.88905 14.4021 5.05637C15.0518 6.0288 15.4492 7.14355 15.5638 8.30029C15.6019 8.68546 15.9121 9 16.2992 9Z" fill="#00FF0A"/>
</svg>
